<?xml version="1.0" ?><svg style="enable-background:new 0 0 32 32;" version="1.1" viewBox="0 0 32 32" xml:space="preserve" xmlns="http://www.w3.org/2000/svg" xmlns:xlink="http://www.w3.org/1999/xlink"><style type="text/css">
	.st0{fill:#B9F3F8;}
	.st1{fill:#55C1FA;}
	.st2{fill:#FBC34E;}
	.st3{opacity:0.05;}
	.st4{fill:#FFFFFF;}
	.st5{fill:#7A442A;}
	.st6{fill:#C77C58;}
	.st7{fill:#E4EDF2;}
	.st8{fill:#F25949;}
	.st9{fill:#FA9B55;}
	.st10{fill:#E5A533;}
	.st11{fill:#6FA7AB;}
	.st12{fill:#20A56C;}
	.st13{fill:#F2C09E;}
	.st14{fill:#F4E8D0;}
	.st15{fill:#F2AB38;}
	.st16{fill:#393B3D;}
	.st17{fill:#ACE4E5;}
	.st18{fill:#659899;}
	.st19{fill:#E3FAFC;}
	.st20{fill:#DDF1F2;}
	.st21{fill:#16F293;}
	.st22{fill:#5C3320;}
	.st23{fill:#AD410D;}
	.st24{fill:#8B9CA5;}
	.st25{fill:#B26C50;}
	.st26{fill:none;}
	.st27{fill:#DAE1E5;}
	.st28{fill:#425158;}
	.st29{fill:#829299;}
	.st30{fill:#A5795C;}
	.st31{fill:#7A7468;}
	.st32{fill:#7B3ABF;}
	.st33{fill:#B564FF;}
	.st34{fill:#2B617D;}
</style><g id="Magnifier"/><g id="Gear"/><g id="Home"/><g id="Shield"/><g id="Star"/><g id="Flash"/><g id="Heart"/><g id="Hearts"/><g id="Shopping_Bag"/><g id="Token"/><g id="Warning"/><g id="Warning_B"/><g id="Chat"/><g id="Diamond"/><g id="Hanger"/><g id="Warning_C"/><g id="Potion"/><g id="Hourglass"/><g id="Trophy"/><g id="Bomb"/><g id="Gem"/><g id="Spell_Book"/><g id="User"/><g id="Users"/><g id="Treasure_Chest"/><g id="Treasure_Chest_Open"/><g id="Sack"/><g id="Fishing_Pin"/><g id="Sword"/><g id="Sword_And_Shield"><g><path class="st6" d="M28.339,5.894L16.744,2.118c-0.485-0.158-1-0.158-1.489,0L3.661,5.894c-0.412,0.134-0.69,0.546-0.69,0.979    c0,8.405,3.422,16.323,9.389,21.724c1.038,0.94,2.339,1.41,3.641,1.41s2.604-0.471,3.641-1.41    c5.967-5.4,9.389-13.318,9.389-21.724V6.845C29.029,6.412,28.751,6.028,28.339,5.894z M17.182,23.272c0.553,0,1,0.447,1,1    s-0.447,1-1,1h-2.363c-0.553,0-1-0.447-1-1s0.447-1,1-1H15v-2.404h-2.312c-0.553,0-1-0.447-1-1s0.447-1,1-1h0.656V9.383    c0-0.265,0.105-0.52,0.293-0.707l1.655-1.656c0.375-0.375,1.039-0.375,1.414,0l1.655,1.656c0.188,0.188,0.293,0.442,0.293,0.707    v9.485h0.656c0.553,0,1,0.447,1,1s-0.447,1-1,1H17v2.404H17.182z"/><path class="st7" d="M18.655,18.868V9.383c0-0.265-0.105-0.52-0.293-0.707L16.707,7.02c-0.375-0.375-1.039-0.375-1.414,0    l-1.655,1.656c-0.188,0.188-0.293,0.442-0.293,0.707v9.485H18.655z"/><rect class="st5" height="2.404" width="2" x="15" y="20.868"/><path class="st2" d="M17,20.868h2.312c0.553,0,1-0.447,1-1s-0.447-1-1-1h-0.656h-5.311h-0.656c-0.553,0-1,0.447-1,1s0.447,1,1,1    H15H17z"/><path class="st2" d="M15,23.272h-0.182c-0.553,0-1,0.447-1,1s0.447,1,1,1h2.363c0.553,0,1-0.447,1-1s-0.447-1-1-1H17H15z"/></g></g><g id="Backpack"/><g id="Key"/><g id="Meat"/><g id="Skull"/><g id="Store"/><g id="Helmet"/><g id="Anvil"/><g id="Axe"/><g id="Spear"/><g id="Food"/><g id="Bow"/><g id="Scroll"/><g id="Armor"/><g id="Hat"/><g id="Wand"/><g id="Map"/><g id="Mushroom"/><g id="Feather"/><g id="Wings"/><g id="Fish"/></svg>